<svg xmlns="http://www.w3.org/2000/svg" viewBox="0 0 504.58 132.1" aria-hidden="true">
    <g fill="currentColor">
        <g>
            <path d="M44.62,42.87V14.57h17.4v51.92c0,14.15-10.33,24.48-24.48,24.48h-11.09c-14.15,0-24.48-10.33-24.48-24.48v-12.91c0-13.58,9.66-22.85,23.23-22.85,8.99,0,16.06,5.07,19.41,12.14ZM19.76,60.94c0,6.88,5.35,12.24,12.24,12.24s12.24-5.35,12.24-12.24-5.35-12.24-12.24-12.24-12.24,5.35-12.24,12.24Z"></path>
            <path d="M66.9,66.49v-11.09c0-14.15,10.33-24.48,24.48-24.48h11.09c14.15,0,24.48,10.33,24.48,24.48v11.09c0,14.06-10.33,24.48-24.48,24.48h-11.09c-14.15,0-24.48-10.42-24.48-24.48ZM109.16,60.94c0-6.88-5.35-12.24-12.24-12.24s-12.24,5.35-12.24,12.24,5.35,12.24,12.24,12.24,12.24-5.35,12.24-12.24Z"></path>
            <path d="M195.88,68.3v-12.91c0-14.15,10.33-24.48,24.48-24.48h11.09c14.15,0,24.48,10.33,24.48,24.48v35.38h-17.4v-11.76c-3.35,7.08-10.42,12.14-19.41,12.14-13.58,0-23.23-9.27-23.23-22.85ZM238.14,60.94c0-6.88-5.35-12.24-12.24-12.24s-12.24,5.35-12.24,12.24,5.35,12.24,12.24,12.24,12.24-5.35,12.24-12.24Z"></path>
            <path d="M260.52,53.1c0-13.19,11.28-22.18,24.48-22.18h4.4c9.94,0,18.74,5.07,22.47,13.19,2.68-8.03,10.33-13.39,19.51-13.39,12.05,0,21.32,8.51,21.32,20.56v39.49h-20.46v-32.13c0-5.35-3.82-9.18-9.18-9.18s-9.18,3.82-9.18,9.18v32.13h-20.46v-32.13c0-5.35-3.82-9.18-9.18-9.18s-9.18,3.82-9.18,9.18v32.13h-14.53v-37.67Z"></path>
            <path d="M355.65,14.09c0-7.17,5.45-12.62,12.62-12.62s12.62,5.45,12.62,12.62-5.45,12.62-12.62,12.62-12.62-5.45-12.62-12.62ZM358.04,31.11h20.46v59.66h-20.46V31.11Z"></path>
            <path d="M383.86,53.1c0-13.19,11.28-22.18,24.48-22.18h4.4c13.19,0,24.48,8.99,24.48,22.18v37.67h-20.46v-32.13c0-5.35-3.82-9.18-9.18-9.18s-9.18,3.82-9.18,9.18v32.13h-14.53v-37.67Z"></path>
            <path d="M441.61,68.3v-12.91c0-14.15,10.33-24.48,24.48-24.48h11.09c14.15,0,24.48,10.33,24.48,24.48v35.38h-17.4v-11.76c-3.35,7.08-10.42,12.14-19.41,12.14-13.58,0-23.23-9.27-23.23-22.85ZM483.87,60.94c0-6.88-5.35-12.24-12.24-12.24s-12.24,5.35-12.24,12.24,5.35,12.24,12.24,12.24,12.24-5.35,12.24-12.24Z"></path>
        </g>
        <path d="M149.03,79.01v28.3h-17.4v-51.92c0-14.15,10.33-24.48,24.48-24.48h11.09c14.15,0,24.48,10.33,24.48,24.48v12.91c0,13.58-9.66,22.85-23.23,22.85-8.99,0-16.06-5.07-19.41-12.14ZM173.89,60.94c0-6.88-5.35-12.24-12.24-12.24s-12.24,5.35-12.24,12.24,5.35,12.24,12.24,12.24,12.24-5.35,12.24-12.24Z"></path>
        <path d="M266.82,124.9c-1.49,0-2.7-.26-3.63-.77-.93-.51-1.61-1.17-2.03-1.98-.42-.81-.63-1.66-.63-2.55v-.35c0-.12.01-.24.03-.35l2.6-.33c-.02.16-.03.26-.03.32v.22c0,.96.31,1.76.93,2.42.62.66,1.71.98,3.27.98.69,0,1.39-.11,2.1-.33.71-.22,1.31-.56,1.78-1.02.48-.46.72-1.05.72-1.78,0-.87-.35-1.46-1.05-1.77-.7-.31-1.74-.51-3.12-.6-1.56-.11-2.79-.49-3.7-1.15-.91-.66-1.37-1.66-1.37-3.02,0-1.04.29-1.97.87-2.78.58-.81,1.39-1.45,2.43-1.92,1.04-.47,2.27-.7,3.67-.7s2.5.23,3.37.7c.87.47,1.51,1.06,1.92,1.78.41.72.62,1.48.62,2.28v.37l-2.57.37c.02-.18.03-.3.03-.37,0-.84-.32-1.52-.95-2.03-.63-.51-1.55-.77-2.75-.77-.6,0-1.21.1-1.83.3-.62.2-1.14.5-1.55.9-.41.4-.62.91-.62,1.53,0,.71.32,1.24.95,1.6.63.36,1.73.59,3.28.7,1.58.11,2.81.51,3.7,1.2.89.69,1.33,1.7,1.33,3.03,0,1.24-.33,2.31-1,3.18-.67.88-1.58,1.55-2.75,2-1.17.46-2.51.68-4.02.68Z"></path>
        <path d="M294.92,124.9c-.64,0-1.25-.18-1.82-.55-.57-.37-.85-.98-.85-1.85,0-.11,0-.23.02-.35.01-.12.03-.23.05-.32l2.07-9.8c.02-.11.04-.22.05-.32.01-.1.02-.19.02-.28,0-.44-.12-.81-.37-1.1-.24-.29-.62-.43-1.13-.43-.62,0-1.12.22-1.5.67-.38.44-.66,1.07-.83,1.87l-2.57,12h-2.6l2.63-12.4c.02-.09.04-.19.05-.3.01-.11.02-.24.02-.4,0-.4-.11-.74-.32-1.02-.21-.28-.59-.42-1.15-.42-.69,0-1.22.26-1.58.77-.37.51-.63,1.1-.78,1.77l-2.57,12h-2.57l3.5-16.53h2.6l-.3,1.4h.4c.24-.64.62-1.12,1.13-1.42.51-.3,1.08-.45,1.7-.45.69,0,1.25.17,1.68.5.43.33.71.79.82,1.37h.4c.31-.6.72-1.06,1.22-1.38.5-.32,1.09-.48,1.78-.48.98,0,1.73.29,2.25.88.52.59.78,1.36.78,2.32,0,.2-.01.42-.03.65-.02.23-.06.44-.1.62l-2.13,9.93c-.07.36.07.53.4.53.13,0,.26-.04.37-.13l1.4-1.03,1.4,1.97-1.5,1.13c-.56.4-1.23.6-2.03.6Z"></path>
        <path d="M305.05,124.9c-1.78,0-3.18-.61-4.2-1.83-1.02-1.22-1.53-2.81-1.53-4.77,0-1.4.19-2.75.58-4.05.39-1.3.97-2.46,1.75-3.48.78-1.02,1.73-1.83,2.87-2.43,1.13-.6,2.44-.9,3.93-.9,1.13,0,2.11.26,2.92.78.81.52,1.33,1.28,1.55,2.28h.4l.53-2.6h2.6l-2.93,13.73c-.04.2-.02.35.07.45.09.1.21.15.37.15s.31-.06.47-.17l1.2-.87,1.4,1.97-1.5,1.13c-.56.4-1.23.6-2.03.6-.64,0-1.25-.18-1.82-.55-.57-.37-.85-.98-.85-1.85,0-.11,0-.22.02-.33.01-.11.03-.22.05-.33h-.4c-.69,1.16-1.51,1.96-2.45,2.4-.94.44-1.94.67-2.98.67ZM305.85,122.43c1.2,0,2.29-.35,3.27-1.05.98-.7,1.76-1.66,2.33-2.87.58-1.21.87-2.56.87-4.05,0-1.38-.31-2.48-.93-3.32-.62-.83-1.59-1.25-2.9-1.25-1.38,0-2.54.38-3.5,1.13-.96.76-1.68,1.75-2.18,2.98-.5,1.23-.75,2.55-.75,3.95,0,2.98,1.27,4.47,3.8,4.47Z"></path>
        <path d="M328.02,124.9c-1.49,0-2.7-.26-3.63-.77-.93-.51-1.61-1.17-2.03-1.98-.42-.81-.63-1.66-.63-2.55v-.35c0-.12.01-.24.03-.35l2.6-.33c-.02.16-.03.26-.03.32v.22c0,.96.31,1.76.93,2.42.62.66,1.71.98,3.27.98.69,0,1.39-.11,2.1-.33.71-.22,1.31-.56,1.78-1.02.48-.46.72-1.05.72-1.78,0-.87-.35-1.46-1.05-1.77-.7-.31-1.74-.51-3.12-.6-1.56-.11-2.79-.49-3.7-1.15-.91-.66-1.37-1.66-1.37-3.02,0-1.04.29-1.97.87-2.78.58-.81,1.39-1.45,2.43-1.92,1.04-.47,2.27-.7,3.67-.7s2.5.23,3.37.7c.87.47,1.51,1.06,1.92,1.78.41.72.62,1.48.62,2.28v.37l-2.57.37c.02-.18.03-.3.03-.37,0-.84-.32-1.52-.95-2.03-.63-.51-1.55-.77-2.75-.77-.6,0-1.21.1-1.83.3-.62.2-1.14.5-1.55.9-.41.4-.62.91-.62,1.53,0,.71.32,1.24.95,1.6.63.36,1.73.59,3.28.7,1.58.11,2.81.51,3.7,1.2.89.69,1.33,1.7,1.33,3.03,0,1.24-.33,2.31-1,3.18-.67.88-1.58,1.55-2.75,2-1.17.46-2.51.68-4.02.68Z"></path>
        <path d="M354.95,124.9c-.69,0-1.29-.2-1.82-.6-.52-.4-.78-1.02-.78-1.87,0-.24.03-.53.1-.87l1.53-6.93c.07-.31.12-.59.15-.83.03-.24.05-.48.05-.7,0-1.16-.34-1.98-1.02-2.47-.68-.49-1.52-.73-2.52-.73-1.49,0-2.73.54-3.73,1.62-1,1.08-1.69,2.52-2.07,4.32l-1.83,8.6h-2.57l5.07-23.8h2.5l-2,9.73h.4c.56-1.04,1.28-1.79,2.18-2.25.9-.46,1.89-.68,2.98-.68,1.47,0,2.68.46,3.65,1.38.97.92,1.45,2.22,1.45,3.88,0,.33-.02.68-.05,1.03-.03.36-.09.72-.18,1.1l-1.47,6.97c-.07.33.08.5.43.5.13,0,.27-.06.4-.17l1.3-.93,1.4,1.97-1.53,1.1c-.6.42-1.28.63-2.03.63Z"></path>
        <path d="M390.12,124.9c-1.02,0-2.01-.25-2.95-.75-.94-.5-1.59-1.25-1.95-2.25h-.4l-.53,2.53h-2.57l5.03-23.8h2.57l-2.1,9.87h.4c.62-.91,1.43-1.65,2.42-2.22.99-.57,2.13-.85,3.42-.85,1.16,0,2.19.27,3.1.8.91.53,1.63,1.28,2.17,2.23.53.96.8,2.08.8,3.37,0,2.27-.42,4.23-1.25,5.88-.83,1.66-1.96,2.93-3.38,3.83-1.42.9-3.01,1.35-4.77,1.35ZM390.05,122.43c1.22,0,2.34-.34,3.37-1.02,1.02-.68,1.84-1.63,2.45-2.85.61-1.22.92-2.63.92-4.23,0-1.36-.36-2.43-1.08-3.23-.72-.8-1.75-1.2-3.08-1.2s-2.44.37-3.45,1.1c-1.01.73-1.81,1.7-2.4,2.9-.59,1.2-.88,2.51-.88,3.93s.37,2.6,1.12,3.4c.74.8,1.76,1.2,3.05,1.2Z"></path>
        <path d="M406.98,124.9c-1.44,0-2.63-.42-3.55-1.27-.92-.84-1.38-2.08-1.38-3.7,0-.33.02-.67.07-1.02.04-.34.11-.73.2-1.15l2.2-9.87h2.6l-2.13,9.53c-.16.69-.23,1.33-.23,1.93,0,2.04,1.1,3.07,3.3,3.07,1.53,0,2.84-.54,3.92-1.62,1.08-1.08,1.82-2.52,2.22-4.32l1.93-8.6h2.6l-3.03,13.73c-.04.18-.02.32.07.43.09.11.21.17.37.17s.31-.06.47-.17l1.43-1.03,1.4,1.93-1.67,1.27c-.27.22-.59.39-.98.5-.39.11-.78.17-1.18.17-.64,0-1.24-.19-1.78-.57-.54-.38-.82-.99-.82-1.83,0-.11,0-.22.02-.33.01-.11.03-.22.05-.33l.03-.2h-.4c-.6,1.07-1.37,1.88-2.3,2.43-.93.56-2.07.83-3.4.83Z"></path>
        <path d="M421.32,124.43v-2.4h4.07l2.4-11.27c.07-.27.03-.47-.1-.62-.13-.14-.3-.22-.5-.22-.16,0-.32.06-.5.17l-3.03,2.07-1.33-1.97,2.97-2c.76-.51,1.52-.77,2.3-.77.69,0,1.29.19,1.8.58.51.39.8,1.02.87,1.88h.4c.64-.91,1.37-1.55,2.17-1.92.8-.37,1.63-.55,2.5-.55,1.58,0,2.83.46,3.75,1.38.92.92,1.38,2.14,1.38,3.65,0,.58-.07,1.17-.2,1.77l-2.83.2c.04-.24.08-.48.12-.72s.05-.46.05-.68c0-1.07-.3-1.86-.9-2.37-.6-.51-1.36-.77-2.27-.77s-1.67.22-2.33.65c-.67.43-1.21,1.01-1.63,1.73-.42.72-.72,1.51-.9,2.35l-1.57,7.4h3.93v2.4h-10.6Z"></path>
        <path d="M442.92,131.1v-2.4h9.63c.62,0,1-.33,1.13-1l1.2-5.6h-.4c-.64.93-1.45,1.63-2.42,2.1s-2.03.7-3.18.7c-1.27,0-2.38-.28-3.33-.83-.96-.56-1.7-1.33-2.23-2.33s-.8-2.17-.8-3.5c0-2.04.4-3.88,1.2-5.52.8-1.63,1.91-2.92,3.33-3.87,1.42-.94,3.07-1.42,4.93-1.42,1.31,0,2.39.28,3.25.85.86.57,1.42,1.31,1.68,2.22h.4l.57-2.6h2.6l-4.37,20.6c-.16.76-.53,1.38-1.12,1.87-.59.49-1.26.73-2.02.73h-10.07ZM449.45,122.43c1.02,0,1.96-.23,2.8-.68.84-.46,1.57-1.06,2.18-1.82.61-.76,1.08-1.61,1.42-2.55.33-.94.5-1.91.5-2.88,0-1.38-.39-2.49-1.17-3.33-.78-.84-1.82-1.27-3.13-1.27-1.4,0-2.61.38-3.63,1.13-1.02.76-1.81,1.75-2.37,2.98-.56,1.23-.83,2.55-.83,3.95s.37,2.44,1.1,3.25c.73.81,1.78,1.22,3.13,1.22Z"></path>
        <path d="M469.99,124.9c-1.31,0-2.48-.26-3.52-.78-1.03-.52-1.84-1.28-2.42-2.28-.58-1-.87-2.19-.87-3.57s.22-2.74.67-4.03c.44-1.29,1.09-2.44,1.95-3.47.86-1.02,1.9-1.83,3.13-2.43s2.64-.9,4.22-.9c1.49,0,2.72.29,3.68.88.97.59,1.68,1.36,2.15,2.32.47.96.7,1.97.7,3.03,0,.58-.07,1.16-.2,1.73l-.37,1.57h-13.27c-.02.18-.05.38-.08.6-.03.22-.05.46-.05.7,0,1.22.36,2.23,1.07,3.02.71.79,1.84,1.18,3.4,1.18s2.81-.34,3.68-1.02c.88-.68,1.53-1.48,1.95-2.42l2.13,1.2c-.42.87-.98,1.66-1.67,2.37-.69.71-1.54,1.27-2.57,1.68-1.02.41-2.27.62-3.73.62ZM466.42,114.57h10.6c.07-.38.1-.71.1-1,0-1.2-.41-2.11-1.23-2.73-.82-.62-1.84-.93-3.07-.93-1.56,0-2.9.44-4.03,1.33-1.13.89-1.92,2-2.37,3.33Z"></path>
        <path d="M482.52,124.43v-2.4h4.07l2.4-11.27c.07-.27.03-.47-.1-.62-.13-.14-.3-.22-.5-.22-.16,0-.32.06-.5.17l-3.03,2.07-1.33-1.97,2.97-2c.76-.51,1.52-.77,2.3-.77.69,0,1.29.19,1.8.58.51.39.8,1.02.87,1.88h.4c.64-.91,1.37-1.55,2.17-1.92.8-.37,1.63-.55,2.5-.55,1.58,0,2.83.46,3.75,1.38.92.92,1.38,2.14,1.38,3.65,0,.58-.07,1.17-.2,1.77l-2.83.2c.04-.24.08-.48.12-.72s.05-.46.05-.68c0-1.07-.3-1.86-.9-2.37-.6-.51-1.36-.77-2.27-.77s-1.67.22-2.33.65c-.67.43-1.21,1.01-1.63,1.73-.42.72-.72,1.51-.9,2.35l-1.57,7.4h3.93v2.4h-10.6Z"></path>
    </g>
</svg>